<?xml version="1.0" encoding="UTF-8"?>
<svg id="Logo" xmlns="http://www.w3.org/2000/svg" xmlns:xlink="http://www.w3.org/1999/xlink" viewBox="0 0 848.34 1073.74">
  <defs>
    <style>
      .cls-1 {
        fill: url(#linear-gradient-15);
      }

      .cls-2 {
        fill: url(#linear-gradient-13);
      }

      .cls-3 {
        fill: url(#linear-gradient-28);
      }

      .cls-4 {
        fill: url(#linear-gradient-53);
      }

      .cls-5 {
        fill: url(#linear-gradient-42);
      }

      .cls-6 {
        fill: url(#linear-gradient-46);
      }

      .cls-7 {
        fill: url(#linear-gradient-2);
      }

      .cls-8 {
        fill: url(#linear-gradient-43);
      }

      .cls-9 {
        fill: url(#linear-gradient-25);
      }

      .cls-10 {
        fill: url(#linear-gradient-10);
      }

      .cls-11 {
        fill: url(#linear-gradient-12);
      }

      .cls-12 {
        fill: url(#linear-gradient-40);
      }

      .cls-13 {
        fill: url(#linear-gradient-27);
      }

      .cls-14 {
        fill: url(#linear-gradient-37);
      }

      .cls-15 {
        fill: url(#linear-gradient-39);
      }

      .cls-16 {
        fill: url(#linear-gradient-52);
      }

      .cls-17 {
        fill: url(#linear-gradient-47);
      }

      .cls-18 {
        fill: url(#linear-gradient-26);
      }

      .cls-19 {
        fill: url(#linear-gradient-4);
      }

      .cls-20 {
        fill: url(#linear-gradient-35);
      }

      .cls-21 {
        fill: url(#linear-gradient-30);
      }

      .cls-22 {
        fill: url(#linear-gradient-44);
      }

      .cls-23 {
        fill: url(#linear-gradient-49);
      }

      .cls-24 {
        fill: url(#linear-gradient-3);
      }

      .cls-25 {
        fill: url(#linear-gradient-34);
      }

      .cls-26 {
        fill: url(#linear-gradient-5);
      }

      .cls-27 {
        fill: url(#linear-gradient-38);
      }

      .cls-28 {
        fill: url(#linear-gradient-22);
      }

      .cls-29 {
        fill: url(#linear-gradient-24);
      }

      .cls-30 {
        fill: url(#linear-gradient-54);
      }

      .cls-31 {
        fill: url(#linear-gradient-33);
      }

      .cls-32 {
        fill: url(#linear-gradient-51);
      }

      .cls-33 {
        fill: url(#linear-gradient-8);
      }

      .cls-34 {
        fill: url(#linear-gradient-14);
      }

      .cls-35 {
        fill: url(#linear-gradient-29);
      }

      .cls-36 {
        fill: url(#linear-gradient-20);
      }

      .cls-37 {
        fill: url(#linear-gradient-17);
      }

      .cls-38 {
        fill: url(#linear-gradient-50);
      }

      .cls-39 {
        fill: url(#linear-gradient-7);
      }

      .cls-40 {
        fill: url(#linear-gradient-9);
      }

      .cls-41 {
        fill: url(#linear-gradient-11);
      }

      .cls-42 {
        fill: url(#linear-gradient-19);
      }

      .cls-43 {
        fill: url(#linear-gradient-6);
      }

      .cls-44 {
        fill: url(#linear-gradient-36);
      }

      .cls-45 {
        fill: url(#linear-gradient-21);
      }

      .cls-46 {
        fill: url(#linear-gradient-45);
      }

      .cls-47 {
        fill: url(#linear-gradient-48);
      }

      .cls-48 {
        fill: url(#linear-gradient-32);
      }

      .cls-49 {
        fill: url(#linear-gradient-41);
      }

      .cls-50 {
        fill: url(#linear-gradient-16);
      }

      .cls-51 {
        fill: url(#linear-gradient);
      }

      .cls-52 {
        fill: url(#linear-gradient-23);
      }

      .cls-53 {
        fill: url(#linear-gradient-31);
      }

      .cls-54 {
        fill: url(#linear-gradient-18);
      }
    </style>
    <linearGradient id="linear-gradient" x1="430.87" y1="164.49" x2="691.37" y2="164.49" gradientUnits="userSpaceOnUse">
      <stop offset="0" stop-color="#0071bc"/>
      <stop offset=".27" stop-color="#0071bc"/>
      <stop offset="1" stop-color="#1b1464"/>
    </linearGradient>
    <linearGradient id="linear-gradient-2" x1="156.97" y1="164.5" x2="417.79" y2="164.5" xlink:href="#linear-gradient"/>
    <linearGradient id="linear-gradient-3" x1="146.83" y1="273.86" x2="407.45" y2="273.86" xlink:href="#linear-gradient"/>
    <linearGradient id="linear-gradient-4" x1="440.88" y1="273.86" x2="701.51" y2="273.86" xlink:href="#linear-gradient"/>
    <linearGradient id="linear-gradient-5" x1="437.69" y1="448.4" x2="585.39" y2="448.4" xlink:href="#linear-gradient"/>
    <linearGradient id="linear-gradient-6" x1="391.13" y1="212.49" x2="477.63" y2="212.49" xlink:href="#linear-gradient"/>
    <linearGradient id="linear-gradient-7" x1="352.36" y1="455.04" x2="443.43" y2="455.04" xlink:href="#linear-gradient"/>
    <linearGradient id="linear-gradient-8" x1="445.88" y1="555.14" x2="519.34" y2="555.14" xlink:href="#linear-gradient"/>
    <linearGradient id="linear-gradient-9" x1="490.98" y1="313.38" x2="629.56" y2="313.38" xlink:href="#linear-gradient"/>
    <linearGradient id="linear-gradient-10" x1="218.53" y1="313.37" x2="357.37" y2="313.37" xlink:href="#linear-gradient"/>
    <linearGradient id="linear-gradient-11" x1="407.69" y1="650.45" x2="456.09" y2="650.45" xlink:href="#linear-gradient"/>
    <linearGradient id="linear-gradient-12" x1="589.5" y1="201.91" x2="736.44" y2="201.91" xlink:href="#linear-gradient"/>
    <linearGradient id="linear-gradient-13" x1="111.89" y1="201.68" x2="258.84" y2="201.68" xlink:href="#linear-gradient"/>
    <linearGradient id="linear-gradient-14" x1="367.41" y1="581.16" x2="423.43" y2="581.16" xlink:href="#linear-gradient"/>
    <linearGradient id="linear-gradient-15" x1="449.09" y1="705.57" x2="497.65" y2="705.57" xlink:href="#linear-gradient"/>
    <linearGradient id="linear-gradient-16" x1="357.19" y1="361.54" x2="387.61" y2="361.54" xlink:href="#linear-gradient"/>
    <linearGradient id="linear-gradient-17" x1="460.8" y1="361.54" x2="491.17" y2="361.54" xlink:href="#linear-gradient"/>
    <linearGradient id="linear-gradient-18" x1="415.83" y1="135.26" x2="492.64" y2="135.26" xlink:href="#linear-gradient"/>
    <linearGradient id="linear-gradient-19" x1="290.57" y1="337.33" x2="362.38" y2="337.33" xlink:href="#linear-gradient"/>
    <linearGradient id="linear-gradient-20" x1="485.96" y1="337.33" x2="557.77" y2="337.33" xlink:href="#linear-gradient"/>
    <linearGradient id="linear-gradient-21" x1="518.91" y1="532.67" x2="546.34" y2="532.67" xlink:href="#linear-gradient"/>
    <linearGradient id="linear-gradient-22" x1="462.41" y1="587.84" x2="479.49" y2="587.84" xlink:href="#linear-gradient"/>
    <linearGradient id="linear-gradient-23" x1="427.52" y1="249.65" x2="454.23" y2="249.65" xlink:href="#linear-gradient"/>
    <linearGradient id="linear-gradient-24" x1="389.11" y1="120.23" x2="427.51" y2="120.23" xlink:href="#linear-gradient"/>
    <linearGradient id="linear-gradient-25" x1="389.12" y1="336.51" x2="398.98" y2="336.51" xlink:href="#linear-gradient"/>
    <linearGradient id="linear-gradient-26" x1="449.43" y1="336.5" x2="459.22" y2="336.5" xlink:href="#linear-gradient"/>
    <linearGradient id="linear-gradient-27" x1="427.17" y1="661.31" x2="447.55" y2="661.31" xlink:href="#linear-gradient"/>
    <linearGradient id="linear-gradient-28" x1="0" y1="895.41" x2="848.34" y2="895.41" xlink:href="#linear-gradient"/>
    <linearGradient id="linear-gradient-29" x1="0" y1="895.41" x2="848.34" y2="895.41" xlink:href="#linear-gradient"/>
    <linearGradient id="linear-gradient-30" x1="0" y1="895.41" x2="848.34" y2="895.41" xlink:href="#linear-gradient"/>
    <linearGradient id="linear-gradient-31" x1="0" y1="895.41" x2="848.34" y2="895.41" xlink:href="#linear-gradient"/>
    <linearGradient id="linear-gradient-32" x1="0" y1="895.41" x2="848.34" y2="895.41" xlink:href="#linear-gradient"/>
    <linearGradient id="linear-gradient-33" x1="0" y1="895.41" x2="848.34" y2="895.41" xlink:href="#linear-gradient"/>
    <linearGradient id="linear-gradient-34" x1="0" y1="895.41" x2="848.34" y2="895.41" xlink:href="#linear-gradient"/>
    <linearGradient id="linear-gradient-35" x1="0" y1="895.41" x2="848.34" y2="895.41" xlink:href="#linear-gradient"/>
    <linearGradient id="linear-gradient-36" x1="0" y1="895.41" x2="848.34" y2="895.41" xlink:href="#linear-gradient"/>
    <linearGradient id="linear-gradient-37" x1="0" y1="895.41" x2="848.34" y2="895.41" xlink:href="#linear-gradient"/>
    <linearGradient id="linear-gradient-38" x1="0" y1="895.41" x2="848.34" y2="895.41" xlink:href="#linear-gradient"/>
    <linearGradient id="linear-gradient-39" x1="114.75" y1="1046.32" x2="731.55" y2="1046.32" xlink:href="#linear-gradient"/>
    <linearGradient id="linear-gradient-40" x1="114.75" y1="1046.32" x2="731.55" y2="1046.32" xlink:href="#linear-gradient"/>
    <linearGradient id="linear-gradient-41" x1="114.75" y1="1046.32" x2="731.55" y2="1046.32" xlink:href="#linear-gradient"/>
    <linearGradient id="linear-gradient-42" x1="114.75" y1="1046.32" x2="731.55" y2="1046.32" xlink:href="#linear-gradient"/>
    <linearGradient id="linear-gradient-43" x1="114.75" y1="1046.32" x2="731.55" y2="1046.32" xlink:href="#linear-gradient"/>
    <linearGradient id="linear-gradient-44" x1="114.75" y1="1046.32" x2="731.55" y2="1046.32" xlink:href="#linear-gradient"/>
    <linearGradient id="linear-gradient-45" x1="114.75" y1="1046.32" x2="731.55" y2="1046.32" xlink:href="#linear-gradient"/>
    <linearGradient id="linear-gradient-46" x1="114.75" y1="1046.32" x2="731.55" y2="1046.32" xlink:href="#linear-gradient"/>
    <linearGradient id="linear-gradient-47" x1="114.75" y1="1046.32" x2="731.55" y2="1046.32" xlink:href="#linear-gradient"/>
    <linearGradient id="linear-gradient-48" x1="114.75" y1="1046.32" x2="731.55" y2="1046.32" xlink:href="#linear-gradient"/>
    <linearGradient id="linear-gradient-49" x1="114.75" y1="1046.32" x2="731.55" y2="1046.32" xlink:href="#linear-gradient"/>
    <linearGradient id="linear-gradient-50" x1="114.75" y1="1046.32" x2="731.55" y2="1046.32" xlink:href="#linear-gradient"/>
    <linearGradient id="linear-gradient-51" x1="114.75" y1="1046.32" x2="731.55" y2="1046.32" xlink:href="#linear-gradient"/>
    <linearGradient id="linear-gradient-52" x1="114.75" y1="1046.32" x2="731.55" y2="1046.32" xlink:href="#linear-gradient"/>
    <linearGradient id="linear-gradient-53" x1="114.75" y1="1046.32" x2="731.55" y2="1046.32" xlink:href="#linear-gradient"/>
    <linearGradient id="linear-gradient-54" x1="114.75" y1="1046.32" x2="731.55" y2="1046.32" xlink:href="#linear-gradient"/>
  </defs>
  <g>
    <path class="cls-51" d="M641.27,5.84c-.06-1.06-4.1-5.81-.02-5.83,33.4,61.25,26.15,121.59-26.67,167.85-3.5,3.06-8.95,7.82-13.38,9.15,9.72-10.78,20.07-20.8,27.42-33.52,2.66-4.6,12.66-25.36,12.66-29.09v-24.22l-12.5,26.75c-15.56,27.16-40.28,47.6-67.17,63.09-8.97,5.17-39.05,17.37-43.86,22.94-7.25,8.4,9.29,6.24,15.6,5.58,61.89-6.4,130.72-55.51,154.26-113.02,1.03-2.51-1.01-4.51,3.76-3.68v45.92c0,12.24-8.98,37.17-15.36,48.1-8.17,13.99-24.21,29.93-41.41,30.4,6.86-4.37,11.39-9.31,15.3-16.43,13.68-24.92-3.84-9.97-15.33-5.31-69.11,28.04-152.85,14.73-187.31,94.92l-16.38,39.54c1.99-45.26,17.72-90.65,48.38-124.41l-11.66-7.5c51.36-4.78,126.48-27.42,140.75-83.88,3.93-15.55,2.82-27.35,1.21-43.06,5.21,2.84,8.79,8.05,8.34,14.17.42,1.82,2.19,1,3.37.05,3.14-2.54,11.2-19.21,12.93-23.81,2.68-7.14,7.08-22.56,7.08-29.66,0-8.21.49-16.94,0-25.05Z"/>
    <path class="cls-7" d="M156.97,91.84c4.77-.84,2.73,1.17,3.76,3.68,23.58,57.61,92.26,106.6,154.26,113.02,6.31.65,22.86,2.81,15.6-5.58-5.17-5.99-37.58-18.94-47.21-24.6-27.52-16.16-53.84-40.11-67.72-69.22-2.95-6.18-4.22-13.21-7.76-18.96-6.13,34.45,16.56,63.98,39.25,86.82-1.25,1.13-11.72-7.69-13.38-9.15-43.07-37.71-58.51-86.8-38.43-142.01L208.72,0c-2.81,17.8-1.91,35.65,2.93,53.03,1.71,6.13,11.5,29.66,16.32,32.12,2.88,1.47,2.17-1.4,2.5-2.45,1.69-5.44,2.23-9.74,8.32-12.57-16.68,85.35,72.96,120.84,141.97,126.94l-11.66,7.5c27.4,30.21,47.03,77.56,48.48,118.51.07,1.85,1.05,6.34-1.73,5.89-4.08-13.04-8.66-27.32-14.75-39.53-41.46-83.14-104.96-63.67-178.96-91.58-7.66-2.89-19.68-10.7-25.96-12.46-6.72-1.88,1.57,13.15,2.28,14.43,4.21,7.67,8.93,11.61,15.31,17.24-28.07-5.62-45.22-30.81-52.24-57.13-1.23-4.61-4.54-18.36-4.54-22.18v-45.92Z"/>
    <path class="cls-24" d="M407.45,318.96c-29.24-37.34-75.44-66.49-122.93-73.28-9.49-1.36-50.55-3.89-52.51,9.04-3.06,20.22,50.77,31.36,65.23,27.51l-16.34,6.18c-43.45,11.48-85.87-1.21-118.95-30.39-2.29-2.02-16.67-15.5-14.99-17.56,44.55,23.31,92.08-10.16,137.78-11.67,52.8-1.75,104.77,42.51,122.71,90.16Z"/>
    <path class="cls-19" d="M701.37,240.47c1.68,2.06-12.7,15.54-14.99,17.56-33.08,29.18-75.5,41.87-118.95,30.39l-16.34-6.18c18.09.85,45.76-1.65,59.26-15.06,19.35-19.21-14.2-23.74-28.46-23.45-53,1.09-109.09,34.19-141.02,75.23,17.54-47.43,70.4-91.93,122.71-90.16,45.5,1.54,93.5,34.77,137.78,11.67Z"/>
    <path class="cls-26" d="M512.66,460.91c-10.34-12.93-24.4-33.18-43.52-24.08,2.18,29.62,38.2,30.72,60.21,39.97,18.17,7.64,33.42,19.26,44.84,35.32,4.31,6.07,11.96,16.68,11.14,23.95-6.9-13.55-17.06-26.84-30.39-34.75-35.66-21.17-69.47,5.45-100.08-41.87-19.57-30.25-22.18-65.44-8.95-98.73l3.78,27.08c8.46,37.73,36.81,25.16,53.3,50.24,4.02,6.12,7.81,15.69,9.68,22.87Z"/>
    <path class="cls-43" d="M425.84,289.74c-.14.56-2.27,2.56-3.32,2.5-1.37-24.9-9.54-49.26-22.05-70.65-5.66-9.67-10.82-8.54-8.94-21.29,2.75-18.63,20.97-47.75,35.2-59.99,11.21-9.64,16.71-10.05,29.73-1.44,5.32,3.52,8.3,10.45,9.5,11.4,5.13,4.05,1.92-5.54-1.69-7.51,6.64-2.14,13.22,14.42,13.38,20.03-7.65,2.02-21.66-4.3-26.77-9.97-2.57-2.85-2.77-7.72-6.63-9.21-3.15,22-4.34,45.54,13.34,61.77-23.61,6.15-46.52.75-38.42-28.37-18.05,18.98-3.43,36.56,2.15,55.48.86,2.91,4.54,17.13,4.54,18.84,0,8.88,1.72,31.66,0,38.41Z"/>
    <path class="cls-39" d="M434.18,349.04l-14.17,8.35c-8,7.71-18.86,36.75-.42,33.05,4.84-.97,8.28-6.62,12.92-5.52-12.61,15.18-26.49,38.18-25.11,58.52,1.09,16.13,17.07,34.79,24.08,49.4,10.82,22.56,13.66,43.4,11.04,68.26l-6.76-30.79c-8.5-40.33-60.43-62.76-43.33-107.82-12.43,7.86-25.87,8.57-40.06,10,10.62-8.05,22.53-14.19,30.78-25.14,16.8-22.3,13.77-60.26,51.04-58.32Z"/>
    <path class="cls-33" d="M485.97,501c3.14-.72,3.96,1.77,5.84,3.33,16.8,13.9,28.78,31,25.45,53.84-1.44,9.87-8.16,18.87-9.4,29.01-2.55,20.8,2.91,37.38,11.49,55.76-23.62-19.63-34-51.47-31.79-81.76-15.65-.22-31.42-14.13-32.97-29.78-.7-7.07,2.42-12.89,2.96-19.57,1.37-17.24-3.13-29.71-11.66-44.21,2.62-2.51,12.8,12.93,14.01,15.2,7.92,14.9,4.92,32.13,16.1,45.69,12.63,15.33,26.01,11.93,19.1-9.1-.91-2.78-9.85-17.67-9.12-18.4Z"/>
    <path class="cls-40" d="M629.56,305.6c-11,31.32-48.49,43.28-79.18,43.51-4.12-15.22-7.86-39.39-27.69-40.19,8.21-9.95,23.61,1.05,31.71,6.7-9.26-23.72-25.12-34.2-50.92-31.73-4.73.45-8.4,3.62-12.51,2.52,18.65-13.79,36.4-10.02,54.27,2.49,12.49,8.74,24.71,28.34,40.26,29.97,13.76,1.44,32.02-7.18,44.05-13.26Z"/>
    <path class="cls-10" d="M357.37,287.22c-27.89-10.4-53.59.25-63.44,28.41,8.1-5.64,23.5-16.64,31.71-6.7-19.79,1.37-23.64,24.67-27.69,40.19-22.91-.18-50.03-7.02-66.75-23.4-1.7-1.67-16.72-21.74-11.62-20.11,11.03,6.82,30.17,14.62,43.24,13.25,15.19-1.59,28.19-21.17,40.3-29.92,17.64-12.74,36.53-16.56,54.24-1.72Z"/>
    <path class="cls-41" d="M455.88,654.67c.18.21.61,3.51-.81,3.29-16.06-8.86-22.48-18.94-27.53-35.94-.71-2.41,1.02-2.94-3.36-2.46-10.22,44.16-.63,87.09,15,128.59l-14.12-26.77c-23.92-57.13-24.19-113.72,5.81-168.6,2.98-.39,1.63,3.76,1.45,5.62-3.24,34.06-4.01,66.7,19.57,94.47,1.29,1.52,3.81,1.59,3.99,1.8Z"/>
    <path class="cls-11" d="M589.5,225.46c55.47,3.63,112.53-13.22,146.94-58.47-10.54,71.77-82.73,79.43-141.17,61.86-2.24-.67-5.19-.13-5.77-3.39Z"/>
    <path class="cls-2" d="M258.84,225.46c-3.32,4.21-12.64,4.97-18.05,6.14-58.06,12.6-117.87,3.2-128.89-64.61,34.21,45.21,91.62,62.1,146.94,58.47Z"/>
    <path class="cls-34" d="M405.78,703.06c-4.6-4.67-7.43-13.52-9.52-19.69-10.45-30.95-13.53-64.86-.5-95.54l-17.37,18.52-10.99,18.21c2.12-15.26,11.83-31.01,21-43.27,14.5-19.37,39.4-35.4,26.66-63.69-4.54-10.08-13.85-14.27-19.98-23.44-6.71-10.05-11.43-22.86-12.66-34.91l11.97,23.91c8.12,13.34,24.06,21.4,27.69,37.43,6.09,26.89-10.24,48.06-17.5,71.88-10.71,35.17-9.03,75.53,1.18,110.58Z"/>
    <path class="cls-1" d="M497.65,676.33c-5.72,1.85-15.39-2.97-19.99-.86-4.1,1.88-14.99,20.9-16.01,25.84-5.19,25.19,13.97,33.06,15.97,54.36.86,9.2-1.66,22.39-8.34,29.23.6-4.92,2.82-9.12,3.29-14.21,2.76-29.8-23.35-40.49-23.48-70.13-.11-24.08,21.49-36.19,18.35-61.65-.54-4.34-3.57-8.09-3.18-12.66,13.91,11,7.35,32.31,22.51,43.44,3.81,2.8,8.72,2.67,10.88,6.64Z"/>
    <path class="cls-50" d="M380.77,350.7c2.26-.49,1.82,1.72,2.47,3.32,9.81,24.28,3.46,52.46-22.52,61.79,1.37-5.93,4.82-10.26,5.93-16.6,5.48-31.52-21.89-50.86-2.25-84.08,1.58-2.67,3.42-6.54,6.32-7.85-8.94,17.64-9.17,40.78,5.86,55.08l4.19-11.65Z"/>
    <path class="cls-37" d="M487.62,415.81c-27.84-10.3-31.95-40.08-21.68-65.11l5.82,11.64c15.4-14.73,14.96-36.96,5.86-55.08,7.24,6.57,12.39,17.96,13.32,27.57,2.24,23.19-13.43,40.36-9.25,64.37,1.1,6.35,4.55,10.67,5.92,16.6Z"/>
    <path class="cls-54" d="M492.64,178.67l-10.43-12.1c-1.79-11.41-.87-18.23-10.49-26.26-11.24-9.38-27.66-9.05-40.36-14.75-3.9-1.75-15.19-8.18-13.05-12,1.71,3.59,14.88,7.32,10.83,1.69-.1-.14-2.24.21-3.3-1.22-4.6-6.23-9.64-14.24-10.01-22.18,2.73.69,2.83,4.87,4.98,7.52,18.29,22.54,47.25,16.22,60.12,33.39,11.82,15.76,1.28,30.01,11.7,45.9Z"/>
    <path class="cls-42" d="M362.38,300.61c-5.51,5.68-13.76,9.25-19.05,15.17-3.5,3.92-15.18,21.69-9.35,25.75l11.69-4.2c-8.57,22.74-31.72,35.23-55.09,36.72,4.12-5.13,11.58-5,17.26-8.6,17.09-10.84,16.07-36.96,29.42-50.74,6.16-6.35,16.73-11.37,25.12-14.11Z"/>
    <path class="cls-36" d="M557.77,374.06c-23.35-1.32-46.49-14.21-55.09-36.72,15.47,10.27,16.02.96,9.26-11.78-5.84-11.01-16.69-17.33-25.97-24.95,8.39,2.73,18.96,7.75,25.12,14.11,13.36,13.77,12.34,39.89,29.42,50.74,5.68,3.61,13.14,3.47,17.26,8.6Z"/>
    <path class="cls-45" d="M539.41,559.44c4.67-25.1-24.45-29.58-20.05-53.43,1.05-1.23,11.92,7.86,13.37,9.15,14.18,12.53,16.69,19.95,10.22,38.66-.75,2.18-.47,5.1-3.55,5.62Z"/>
    <path class="cls-28" d="M469.27,614.55c7.14-19.31-12.84-33.69-5.01-53.43l10.9,14.96c7,12.29,5.8,29.76-5.89,38.47Z"/>
    <path class="cls-52" d="M454.23,215.44c-22.75,17.4-10.19,47.61-26.7,68.45,1.42-8.04,5.04-17.78,5.14-25.9.12-10.3-5.69-20.86-1.79-30.87,3.31-.3.03,10.81,4.96,6.65,3.21-2.7,6.99-19.25,18.4-18.34Z"/>
    <path class="cls-29" d="M427.51,131.91c-7.83-3.66-22.92,2.35-25.03-8.33l6.66,3.32-2.66-4.84-17.37-13.5c14.85,3.14,29.52,10.91,38.4,23.35Z"/>
    <path class="cls-9" d="M394.09,360.7c-2.9.4-1.57-3.8-1.65-5.82-.55-14.65.39-28.05-3.32-42.59,2.38.81,4.86,6.13,5.82,8.35,6.43,14.91,4.48,25.24-.85,40.06Z"/>
    <path class="cls-18" d="M455.88,360.7c-2.8-.72-3.9-7.16-4.51-9.66-2.96-11.97-2.72-18.88,2.02-30.41.88-2.13,3.51-7.57,5.83-8.34-3.38,16.06-3.89,31.99-3.34,48.41Z"/>
    <path class="cls-13" d="M447.55,678c-15.87-3.97-24.58-17.34-18.35-33.38,8.05,4.97,5.08,15.91,7.92,22.95,2.03,5.04,7.89,6.21,10.43,10.43Z"/>
  </g>
  <g>
    <g>
      <path class="cls-3" d="M.96,963.72c12.38-7.21,27.06-11.83,41.62-14.14v-.54c2.31-43.66,22.98-102.68,37.4-137.23-21.35,4.62-40.94,14.14-44.2,17.27-5.17,4.9-2.72-6.94-1.63-8.02,6.39-4.62,28.7-10.88,48.28-14.96,5.98-13.87,10.61-22.44,11.56-22.58,5.03-.41,12.1,5.98,11.15,8.98-.27.82-2.58,0-4.62,1.09-1.5.68-4.22,4.35-7.62,10.47,10.61-1.77,19.18-2.58,21.9-1.63,2.86,1.09,4.9,9.52,1.09,8.57-7.89-2.18-17-2.04-26.25-.82-12.92,25.02-32.1,76.3-37.26,138.04,16.18-1.5,31.42-.41,42.16,2.86,3.54,1.09,5.03,10.47.54,7.62-4.49-2.86-15.37-6.12-30.33-6.12-3.54,0-7.89.14-12.78.68-.14,2.58-.27,5.3-.41,7.89-.54,2.99-5.3-1.77-7.62-6.8-13.6,2.18-28.97,6.8-40.8,15.64-2.18,1.63-4.49-4.49-2.18-6.26Z"/>
      <path class="cls-35" d="M67.19,981.67c0-11.83,23.53-33.59,49.5-52.63-1.36-.27-2.86-.68-4.35-1.09-6.94-2.18-16.32-8.16-16.32-15.64,0-14.01,15.1-26.52,22.3-32.1,1.77-1.22,2.45-2.18,2.58-3.54.14-1.09,1.09-2.04,3.13-2.99,6.12-2.72,13.46-6.53,16.59-6.53,3.67,0,6.39,6.53,2.99,7.75-12.65,4.49-42.16,27.88-42.16,39.44,0,4.76,8.98,5.85,16.59,8.16,1.9.54,3.67,1.22,5.3,1.9,20.26-14.28,40.94-26.25,52.63-30.19.95-.27,2.18,2.31,1.36,2.58-11.42,3.81-30.74,15.5-49.78,29.38,7.48,3.94,9.79,8.7,9.79,15.78,0,17.14-38.62,52.22-57.53,52.22-9.38,0-12.65-7.34-12.65-12.51ZM77.66,989.7c21.08-2.45,53.04-40.39,53.04-54.67,0-2.86-3.54-3.81-8.57-4.76-26.25,19.99-50.59,43.25-50.59,54.54,0,2.58,1.9,5.44,6.12,4.9Z"/>
      <path class="cls-21" d="M199.79,933.67c0-11.56,9.25-33.73,14.28-50.32-14.01,12.92-35.36,44.47-44.61,44.47-2.72,0-7.34-4.22-7.34-8.98,0-9.38,14.28-44.47,26.93-44.47,9.38,0,16.59,8.57,15.5,10.2-1.63,2.31-4.76-3.13-7.75-3.13-7.48,0-27.06,24.34-27.06,39.03,0,1.5,1.09,1.63,1.5,1.63,6.39,0,32.64-32.91,37.26-38.76,4.62-5.85,6.53-8.02,8.43-8.02s5.98,2.45,5.98,6.12c0,4.9-15.37,46.92-15.37,57.53,0,2.45,1.9,2.86,2.58,2.86,9.38,0,47.19-47.33,54.26-53.99,1.9-1.77,2.72.95,1.77,2.04-.54.68-16.18,19.31-30.19,35.22-9.79,11.02-18.63,20.94-23.53,20.94-7.07,0-12.65-7.34-12.65-12.38Z"/>
      <path class="cls-53" d="M249.43,819.42c0-7.34,5.98-23.66,9.66-38.35.41-1.63,5.58.14,5.58,2.72,0,3.94-10.34,26.52-10.34,40.39,0,2.86-4.9-.82-4.9-4.76Z"/>
      <path class="cls-48" d="M248.75,981.67c0-11.83,23.53-33.59,49.5-52.63-1.36-.27-2.86-.68-4.35-1.09-6.94-2.18-16.32-8.16-16.32-15.64,0-14.01,15.1-26.52,22.3-32.1,1.77-1.22,2.45-2.18,2.58-3.54.14-1.09,1.09-2.04,3.13-2.99,6.12-2.72,13.46-6.53,16.59-6.53,3.67,0,6.39,6.53,2.99,7.75-12.65,4.49-42.16,27.88-42.16,39.44,0,4.76,8.98,5.85,16.59,8.16,1.9.54,3.67,1.22,5.3,1.9,20.26-14.28,40.94-26.25,52.63-30.19.95-.27,2.18,2.31,1.36,2.58-11.42,3.81-30.74,15.5-49.78,29.38,7.48,3.94,9.79,8.7,9.79,15.78,0,17.14-38.62,52.22-57.53,52.22-9.38,0-12.65-7.34-12.65-12.51ZM259.22,989.7c21.08-2.45,53.04-40.39,53.04-54.67,0-2.86-3.54-3.81-8.57-4.76-26.25,19.99-50.59,43.25-50.59,54.54,0,2.58,1.9,5.44,6.12,4.9Z"/>
      <path class="cls-31" d="M398.75,989.97c0-21.35,52.9-64.06,96.43-90.99,3.94-10.61,5.17-18.36,2.45-20.67-8.02-6.8-63.78,45.02-76.16,45.02-7.21,0-19.18-9.79-19.18-23.12,0-25.71,59.3-111.52,88.94-111.52,6.12,0,15.5,8.57,19.72,14.01.82,1.5-1.5,2.99-4.08,1.36s-4.35-7.07-9.11-7.07c-23.8,0-87.31,70.18-87.31,109.35,0,4.35,1.5,10.06,5.98,10.06,12.38,0,60.79-44.34,75.48-44.34,7.62,0,13.87,7.07,13.87,16.32,0,1.36-.14,2.72-.41,4.49,16.05-9.38,29.92-16.05,38.22-17.82,3.81-.82,6.12,4.49,3.13,5.17-13.46,3.26-28.02,9.66-42.43,17.95-8.43,33.05-50.73,106.08-85.68,106.08-8.57,0-19.86-4.08-19.86-14.28ZM414.53,998.67c23.94,0,62.97-57.8,78.2-93.57-45.83,29.1-87.86,72.62-87.86,85.41,0,4.35,2.18,8.16,9.66,8.16Z"/>
      <path class="cls-25" d="M511.77,985.89c.95-37.81,18.22-97.92,33.18-141.99-27.47,3.13-63.65,8.43-87.31,15.37-2.18.68-5.85-6.94-1.77-7.89,14.96-3.26,57.26-8.16,90.31-11.15,7.75-22.3,14.69-40.12,18.36-48.01.95-2.04,4.76-1.5,9.52-.54,4.62.95,9.25,2.86,8.7,4.76-.27,1.09-2.99.54-5.71,2.58-6.39,4.76-14.14,20.13-21.9,40.53,13.06-1.09,23.8-1.77,29.65-1.77,19.58,0,21.62,6.26,21.62,8.02,0,2.58-1.63,4.49-3.54,4.62-.95,0-2.18-2.04-.68-2.99,2.31-1.63,1.63-6.39-21.22-6.53-3.81,0-13.87.68-27.06,2.04-16.18,43.66-31.69,108.26-33.05,143.89-.68,19.58,9.93,22.03,5.44,23.39-3.67,1.22-14.96-5.44-14.55-24.34Z"/>
      <path class="cls-20" d="M588.75,945.91c0-19.58,33.46-80.92,27.74-73.17-5.71,7.75-41.75,52.9-50.59,52.9-3.13,0-7.34-5.3-7.34-8.57,0-10.34,5.71-20.4,7.07-23.8.27-.68.27-1.22,0-1.9l-.14-.27c-.27-.54-.41-1.36-.14-2.04,1.63-3.94,4.08-7.75,5.71-8.3,1.77-.54,8.98,3.26,6.94,5.98-3.26,4.35-14.42,21.35-14.01,29.24.14,2.04.41,3.4,2.18,3.4,13.74,0,52.63-58.21,57.26-58.21,1.09-.27,7.21,1.77,5.71,5.03-1.5,3.26-31.14,63.38-31.14,82.01,0,3.54,1.22,5.98,3.26,6.8,1.63.68,2.99,4.22-.41,4.22s-12.1-4.35-12.1-13.33Z"/>
      <path class="cls-44" d="M676.47,983.31c-8.3-8.02-5.44-23.8-2.86-34.95,2.58-11.15,22.58-74.94,28.7-88.4-5.71,6.66-49.78,66.64-59.57,66.64-4.08,0-8.98-6.53-8.98-10.2,0-11.56,19.45-39.03,29.1-39.03,6.26,0,12.78,3.54,16.46,6.12,11.15-14.14,21.35-28.15,24.89-33.46,8.02-12.1,23.53-57.12,31.28-57.12,2.45,0,5.17,1.5,5.17,4.22,0,4.08-16.73,26.52-21.49,36.31s-41.21,105.67-37.81,141.03c.68,7.21,2.72,10.74,3.67,11.7,1.77,1.77-3.54,2.04-8.57-2.86ZM642.87,920.75c5.17,0,20.4-17.27,34.54-34.95-1.77-1.09-2.99-2.18-5.44-2.18-9.93,0-30.06,27.47-30.06,35.9,0,.82.41,1.22.95,1.22Z"/>
      <path class="cls-14" d="M722.98,929.59c0-12.92,7.21-36.31,10.06-41.89.41-.82.41-1.5.27-2.18-.14-.82-.95-1.09-.41-2.18,2.99-5.98,3.81-7.48,4.76-7.75.54-.14,1.36-.14,2.18.27,3.94,1.5,9.11,6.94,8.16,8.57-9.79,15.37-23.66,47.74-18.5,50.18,7.34,3.4,40.26-31.55,55.08-51.27,3.26-4.35,4.08.27,2.58,1.9-1.5,1.63-40.12,52.22-56.44,52.22-3.94,0-7.75-1.63-7.75-7.89ZM746.64,855.19c.54-1.9,3.26-13.46,4.08-16.46.82-2.99,9.79,2.72,8.57,5.58-1.22,2.86-6.8,11.15-7.89,13.46-1.09,2.18-5.3-.68-4.76-2.58Z"/>
      <path class="cls-27" d="M770.85,924.83c.14-5.17,1.36-10.88,3.13-16.32-4.9-3.94-6.94-9.25-6.94-14.28,0-18.5,18.36-30.74,32.78-30.74,8.02,0,14.69,5.71,14.69,14.01,0,9.79-4.35,23.26-10.06,34.95,13.19-1.77,30.19-10.61,40.26-27.47.82-1.36,4.62.41,3.4,2.04-6.39,8.98-24.07,26.52-45.29,28.56-6.66,12.1-14.69,21.62-20.67,21.62s-11.42-6.94-11.29-12.38ZM786.35,910.95c3.54,1.09,8.02,1.77,13.46,1.77h.82c5.71-11.15,10.2-25.02,10.2-36.99,0-5.58-3.4-9.11-8.02-9.11-16.05,0-28.29,23.39-28.29,30.74,0,2.04.41,4.08,1.36,5.98,5.03-11.97,12.24-21.62,15.37-21.62,4.9,0,7.21,4.08,5.98,6.26-3.4,6.39-7.62,14.96-10.88,22.98ZM785.13,914.08c-4.22,10.74-6.53,19.72-2.99,19.72,4.35,0,11.15-7.48,17-18.09h-.27c-5.3,0-9.93-.54-13.74-1.63Z"/>
    </g>
    <g>
      <path class="cls-15" d="M125.67,1019.74v42c0,1.68-.28,3.25-.84,4.71-.56,1.46-1.34,2.73-2.34,3.81-1,1.08-2.16,1.93-3.48,2.55-1.32.62-2.74.93-4.26.93v-.54c1.32-.48,2.51-1.31,3.57-2.49,1.06-1.18,1.9-2.57,2.52-4.17.62-1.6.93-3.26.93-4.98v-41.82h3.9ZM121.95,1024.12h-.18c-.04-1.04-.43-1.93-1.17-2.67-.74-.74-1.63-1.11-2.67-1.11h-.78v-.6h4.8v4.38ZM125.49,1024.12v-4.38h4.8v.6h-.78c-1.04,0-1.93.37-2.67,1.11-.74.74-1.13,1.63-1.17,2.67h-.18Z"/>
      <path class="cls-12" d="M140.73,1029.52h-.12c-.04-.92-.38-1.68-1.02-2.28-.64-.6-1.46-.9-2.46-.9h-.84v-.6h5.22l-.78,3.78ZM140.73,1057.9l.78,3.84h-5.22v-.6h.84c1,0,1.82-.32,2.46-.96.64-.64.98-1.4,1.02-2.28h.12ZM144.45,1025.74v36h-3.84v-36h3.84ZM160.53,1025.74v1.86h-16.2v-1.86h16.2ZM157.77,1042.83v1.8h-13.44v-1.8h13.44ZM160.59,1059.88l-.12,1.86h-16.14v-1.86h16.26ZM163.95,1053.16l-3.3,8.58h-9.12l2.04-1.86c2,0,3.61-.29,4.83-.87,1.22-.58,2.21-1.38,2.97-2.4.76-1.02,1.42-2.17,1.98-3.45h.6ZM160.53,1024.78v1.56l-6.84-.6c1.24,0,2.56-.11,3.96-.33,1.4-.22,2.36-.43,2.88-.63ZM157.77,1039.54v3.42h-3.12v-.12c.84,0,1.46-.25,1.86-.75.4-.5.6-1.09.6-1.77v-.78h.66ZM157.77,1044.52v3.42h-.66v-.78c0-.68-.2-1.27-.6-1.77-.4-.5-1.02-.75-1.86-.75v-.12h3.12ZM160.53,1027.42v4.14h-.66v-.9c0-.84-.27-1.56-.81-2.16-.54-.6-1.27-.9-2.19-.9v-.18h3.66Z"/>
      <path class="cls-49" d="M175.23,1029.88l-4.56.06c-.4-1.04-1-1.9-1.8-2.58-.8-.68-1.84-1.02-3.12-1.02h-.48v-.6h12.36v.6h-.48c-.64,0-1.22.27-1.74.81-.52.54-.58,1.45-.18,2.73ZM169.17,1026.1h4.8l9.72,29.58-.54,6.78-13.98-36.36ZM193.83,1024.78l.48,4.86-9.3,26.16c-.4,1.4-.71,2.61-.93,3.63-.22,1.02-.35,2.03-.39,3.03h-.54l-1.14-5.34,11.22-32.34h.6ZM193.83,1024.83l11.52,29.34-1.38,8.28-12.18-31.14,2.04-6.48ZM215.91,1026.1l-9.96,29.7c-.44,1.44-.77,2.67-.99,3.69-.22,1.02-.35,2.01-.39,2.97h-.6l-.72-5.94,9.24-30.42h3.42ZM211.29,1029.94c.44-1.28.41-2.2-.09-2.76-.5-.56-1.07-.84-1.71-.84h-.48v-.6h10.98v.6h-.42c-1.24,0-2.28.34-3.12,1.02-.84.68-1.44,1.54-1.8,2.58h-3.36Z"/>
      <path class="cls-5" d="M227.43,1029.52h-.12c-.04-.92-.38-1.68-1.02-2.28-.64-.6-1.46-.9-2.46-.9h-.84v-.6h5.22l-.78,3.78ZM227.43,1057.9l.78,3.84h-5.22v-.6h.84c1,0,1.82-.32,2.46-.96.64-.64.98-1.4,1.02-2.28h.12ZM231.15,1025.74v36h-3.84v-36h3.84ZM247.23,1025.74v1.86h-16.2v-1.86h16.2ZM244.47,1042.83v1.8h-13.44v-1.8h13.44ZM247.29,1059.88l-.12,1.86h-16.14v-1.86h16.26ZM250.65,1053.16l-3.3,8.58h-9.12l2.04-1.86c2,0,3.61-.29,4.83-.87,1.22-.58,2.21-1.38,2.97-2.4.76-1.02,1.42-2.17,1.98-3.45h.6ZM247.23,1024.78v1.56l-6.84-.6c1.24,0,2.56-.11,3.96-.33,1.4-.22,2.36-.43,2.88-.63ZM244.47,1039.54v3.42h-3.12v-.12c.84,0,1.46-.25,1.86-.75.4-.5.6-1.09.6-1.77v-.78h.66ZM244.47,1044.52v3.42h-.66v-.78c0-.68-.2-1.27-.6-1.77-.4-.5-1.02-.75-1.86-.75v-.12h3.12ZM247.23,1027.42v4.14h-.66v-.9c0-.84-.27-1.56-.81-2.16-.54-.6-1.27-.9-2.19-.9v-.18h3.66Z"/>
      <path class="cls-8" d="M259.59,1029.58h-.12c-.04-.92-.4-1.69-1.08-2.31-.68-.62-1.52-.93-2.52-.93h-.72v-.6h4.44v3.84ZM259.59,1057.9l.78,3.84h-5.22v-.6h.84c1,0,1.82-.32,2.46-.96.64-.64.98-1.4,1.02-2.28h.12ZM263.31,1025.74v36h-3.84v-36h3.84ZM263.13,1029.58v-3.84h4.44v.6h-.72c-.96,0-1.79.31-2.49.93-.7.62-1.05,1.39-1.05,2.31h-.18ZM279.45,1059.88l-.12,1.86h-16.14v-1.86h16.26ZM282.81,1053.16l-3.3,8.58h-9.12l2.04-1.86c2,0,3.61-.29,4.83-.87,1.22-.58,2.21-1.38,2.97-2.4.76-1.02,1.42-2.17,1.98-3.45h.6Z"/>
      <path class="cls-22" d="M290.25,1029.52h-.12c-.04-.92-.38-1.68-1.02-2.28-.64-.6-1.44-.9-2.4-.9h-.84v-.6h5.1l-.72,3.78ZM290.25,1057.9l.72,3.84h-5.1v-.6h.84c.96,0,1.76-.32,2.4-.96.64-.64.98-1.4,1.02-2.28h.12ZM293.91,1025.74v36h-3.84v-36h3.84ZM293.73,1057.9h.18c.04.88.38,1.64,1.02,2.28.64.64,1.44.96,2.4.96h.78l.06.6h-5.16l.72-3.84ZM300.93,1025.74c1.88,0,3.57.22,5.07.66,1.5.44,2.78,1.08,3.84,1.92,1.06.84,1.87,1.86,2.43,3.06.56,1.2.84,2.56.84,4.08,0,1.68-.4,3.24-1.2,4.68-.8,1.44-1.91,2.62-3.33,3.54-1.42.92-3.03,1.48-4.83,1.68.68.28,1.47.9,2.37,1.86.9.96,1.67,1.9,2.31,2.82,1.04,1.4,1.97,2.61,2.79,3.63.82,1.02,1.63,1.99,2.43,2.91.84.92,1.61,1.72,2.31,2.4.7.68,1.46,1.21,2.28,1.59.82.38,1.77.57,2.85.57v.6h-1.86c-2.2,0-4.01-.28-5.43-.84-1.42-.56-2.57-1.25-3.45-2.07-.88-.82-1.64-1.61-2.28-2.37-.16-.2-.53-.71-1.11-1.53-.58-.82-1.21-1.71-1.89-2.67-.68-.96-1.3-1.83-1.86-2.61-.56-.78-.9-1.25-1.02-1.41-.8-1.04-1.72-1.97-2.76-2.79-1.04-.82-2.14-1.23-3.3-1.23v-.6c1.28.04,2.42.04,3.42,0,1.12-.04,2.24-.13,3.36-.27,1.12-.14,2.17-.57,3.15-1.29.98-.72,1.75-1.92,2.31-3.6.16-.44.28-.96.36-1.56.08-.6.1-1.22.06-1.86-.04-1.12-.25-2.12-.63-3-.38-.88-.92-1.64-1.62-2.28-.7-.64-1.53-1.14-2.49-1.5-.96-.36-2.04-.56-3.24-.6-1.88-.08-3.52-.1-4.92-.06-1.4.04-2.1.04-2.1,0s-.05-.21-.15-.51c-.1-.3-.25-.75-.45-1.35h7.74Z"/>
      <path class="cls-46" d="M328.53,1029.52l-5.1-.18c-.64-.92-1.43-1.65-2.37-2.19-.94-.54-1.99-.81-3.15-.81h-.72v-.6h13.92v.6h-.72c-.88,0-1.51.35-1.89,1.05-.38.7-.37,1.41.03,2.13ZM326.43,1025.79l11.1,19.74-2.46,2.1-13.86-21.84h5.22ZM334.71,1057.9v3.84h-4.38v-.6h.72c.96,0,1.77-.32,2.43-.96.66-.64,1.01-1.4,1.05-2.28h.18ZM338.43,1046.25v15.48h-3.9v-15.48h3.9ZM348.51,1025.79h3.78l-14.28,21.72-2.22-.66,12.72-21.06ZM338.25,1057.9h.18c.04.88.39,1.64,1.05,2.28.66.64,1.47.96,2.43.96h.72v.6h-4.38v-3.84ZM346.23,1029.58c.44-.8.46-1.54.06-2.22-.4-.68-1.04-1.02-1.92-1.02h-.72v-.6h12.54v.6h-.72c-1.12,0-2.17.31-3.15.93-.98.62-1.75,1.33-2.31,2.13l-3.78.18Z"/>
      <path class="cls-6" d="M379.47,1057.36c-.44,1.2-.38,2.13.18,2.79.56.66,1.2.99,1.92.99h.48v.6h-11.46v-.6h.48c.84,0,1.7-.29,2.58-.87.88-.58,1.64-1.55,2.28-2.91h3.54ZM391.05,1024.9l.42,4.14-13.74,32.52h-3.78l14.22-30.48c.44-.96.81-1.79,1.11-2.49.3-.7.57-1.39.81-2.07.24-.68.38-1.22.42-1.62h.54ZM398.13,1047.75v1.8h-15.9v-1.8h15.9ZM391.05,1024.9l16.5,36.48h-4.74l-12.78-31.14,1.02-5.34ZM401.19,1057.36h4.56c.6,1.36,1.34,2.33,2.22,2.91.88.58,1.72.87,2.52.87h.48v.6h-12.3v-.6h.48c.68,0,1.3-.33,1.86-.99.56-.66.62-1.59.18-2.79Z"/>
      <path class="cls-17" d="M417.27,1058.02v3.72h-4.5v-.6h1.02c.92,0,1.7-.3,2.34-.9.64-.6.96-1.34.96-2.22h.18ZM417.15,1024.83l2.58,3.36.06,33.54h-2.7v-29.4c0-2.04-.18-4.54-.54-7.5h.6ZM417.15,1024.83l33.24,31.32.6,6.42-33.24-31.5-.6-6.24ZM419.79,1058.02c0,.88.33,1.62.99,2.22.66.6,1.43.9,2.31.9h1.02v.6h-4.5v-3.72h.18ZM448.35,1029.46c-.04-.88-.38-1.62-1.02-2.22-.64-.6-1.42-.9-2.34-.9h-1.02v-.6h4.5v3.72h-.12ZM450.99,1025.74v29.16c0,1.28.04,2.51.12,3.69.08,1.18.22,2.51.42,3.99h-.54l-2.64-3.18v-33.66h2.64ZM450.81,1029.46v-3.72h4.5v.6h-1.02c-.88,0-1.65.3-2.31.9s-.99,1.34-.99,2.22h-.18Z"/>
      <path class="cls-47" d="M465.03,1029.64h-.12c-.04-.96-.39-1.75-1.05-2.37-.66-.62-1.47-.93-2.43-.93h-.72v-.6h4.32v3.9ZM465.03,1057.83v3.9h-4.32v-.6h.78c.96,0,1.76-.33,2.4-.99.64-.66.98-1.43,1.02-2.31h.12ZM468.81,1025.74v36h-3.9v-36h3.9ZM480.75,1025.74c3.96,0,7.38.72,10.26,2.16,2.88,1.44,5.1,3.51,6.66,6.21,1.56,2.7,2.34,5.91,2.34,9.63s-.78,6.92-2.34,9.6c-1.56,2.68-3.78,4.75-6.66,6.21-2.88,1.46-6.3,2.19-10.26,2.19h-12.78l-.12-1.8h12.9c4.64,0,8.29-1.45,10.95-4.35,2.66-2.9,3.99-6.85,3.99-11.85s-1.33-8.95-3.99-11.85c-2.66-2.9-6.31-4.35-10.95-4.35h-13.5v-1.8h13.5Z"/>
      <path class="cls-23" d="M560.61,1044.22l-.72,9.42c-1.04,1.72-2.35,3.25-3.93,4.59-1.58,1.34-3.44,2.4-5.58,3.18-2.14.78-4.59,1.17-7.35,1.17-4.16-.04-7.86-.96-11.1-2.76s-5.77-4.33-7.59-7.59c-1.82-3.26-2.73-7.11-2.73-11.55s.9-8.17,2.7-11.43c1.8-3.26,4.33-5.8,7.59-7.62,3.26-1.82,7.09-2.73,11.49-2.73,2.96,0,5.63.39,8.01,1.17s4.45,1.75,6.21,2.91l1.2,8.46h-.54c-.88-3.52-2.68-6.19-5.4-8.01-2.72-1.82-5.88-2.73-9.48-2.73s-6.57.83-9.15,2.49c-2.58,1.66-4.58,3.98-6,6.96-1.42,2.98-2.13,6.47-2.13,10.47s.71,7.5,2.13,10.5c1.42,3,3.4,5.34,5.94,7.02,2.54,1.68,5.49,2.56,8.85,2.64,2.84,0,5.47-.53,7.89-1.59,2.42-1.06,4.45-2.8,6.09-5.22,1.64-2.42,2.68-5.67,3.12-9.75h.48Z"/>
      <path class="cls-38" d="M571.29,1029.52h-.12c-.04-.92-.38-1.68-1.02-2.28-.64-.6-1.44-.9-2.4-.9h-.84v-.6h5.1l-.72,3.78ZM571.29,1057.9l.72,3.84h-5.1v-.6h.84c.96,0,1.76-.32,2.4-.96.64-.64.98-1.4,1.02-2.28h.12ZM574.95,1025.74v36h-3.84v-36h3.84ZM574.77,1057.9h.18c.04.88.38,1.64,1.02,2.28.64.64,1.44.96,2.4.96h.78l.06.6h-5.16l.72-3.84ZM581.97,1025.74c1.88,0,3.57.22,5.07.66,1.5.44,2.78,1.08,3.84,1.92s1.87,1.86,2.43,3.06c.56,1.2.84,2.56.84,4.08,0,1.68-.4,3.24-1.2,4.68-.8,1.44-1.91,2.62-3.33,3.54s-3.03,1.48-4.83,1.68c.68.28,1.47.9,2.37,1.86.9.96,1.67,1.9,2.31,2.82,1.04,1.4,1.97,2.61,2.79,3.63.82,1.02,1.63,1.99,2.43,2.91.84.92,1.61,1.72,2.31,2.4.7.68,1.46,1.21,2.28,1.59.82.38,1.77.57,2.85.57v.6h-1.86c-2.2,0-4.01-.28-5.43-.84-1.42-.56-2.57-1.25-3.45-2.07-.88-.82-1.64-1.61-2.28-2.37-.16-.2-.53-.71-1.11-1.53-.58-.82-1.21-1.71-1.89-2.67-.68-.96-1.3-1.83-1.86-2.61-.56-.78-.9-1.25-1.02-1.41-.8-1.04-1.72-1.97-2.76-2.79-1.04-.82-2.14-1.23-3.3-1.23v-.6c1.28.04,2.42.04,3.42,0,1.12-.04,2.24-.13,3.36-.27,1.12-.14,2.17-.57,3.15-1.29.98-.72,1.75-1.92,2.31-3.6.16-.44.28-.96.36-1.56.08-.6.1-1.22.06-1.86-.04-1.12-.25-2.12-.63-3-.38-.88-.92-1.64-1.62-2.28-.7-.64-1.53-1.14-2.49-1.5-.96-.36-2.04-.56-3.24-.6-1.88-.08-3.52-.1-4.92-.06-1.4.04-2.1.04-2.1,0s-.05-.21-.15-.51c-.1-.3-.25-.75-.45-1.35h7.74Z"/>
      <path class="cls-32" d="M609.81,1057.36c-.44,1.2-.38,2.13.18,2.79.56.66,1.2.99,1.92.99h.48v.6h-11.46v-.6h.48c.84,0,1.7-.29,2.58-.87s1.64-1.55,2.28-2.91h3.54ZM621.39,1024.9l.42,4.14-13.74,32.52h-3.78l14.22-30.48c.44-.96.81-1.79,1.11-2.49.3-.7.57-1.39.81-2.07.24-.68.38-1.22.42-1.62h.54ZM628.47,1047.75v1.8h-15.9v-1.8h15.9ZM621.39,1024.9l16.5,36.48h-4.74l-12.78-31.14,1.02-5.34ZM631.53,1057.36h4.56c.6,1.36,1.34,2.33,2.22,2.91.88.58,1.72.87,2.52.87h.48v.6h-12.3v-.6h.48c.68,0,1.3-.33,1.86-.99.56-.66.62-1.59.18-2.79Z"/>
      <path class="cls-16" d="M648.81,1029.52h-.12c-.04-.92-.39-1.68-1.05-2.28s-1.49-.9-2.49-.9h-.84v-.6h5.28l-.78,3.78ZM648.81,1057.9l.78,3.84h-5.28v-.6h.84c1,0,1.83-.32,2.49-.96s1.01-1.4,1.05-2.28h.12ZM652.47,1025.74v36h-3.78v-36h3.78ZM652.35,1057.9h.12c.04.88.39,1.64,1.05,2.28s1.49.96,2.49.96h.84v.6h-5.28l.78-3.84ZM668.79,1025.74v1.86h-16.44v-1.86h16.44ZM665.97,1042.83v1.8h-13.62v-1.8h13.62ZM668.79,1024.78v1.56l-6.9-.6c.84,0,1.72-.05,2.64-.15.92-.1,1.77-.23,2.55-.39.78-.16,1.35-.3,1.71-.42ZM665.97,1039.54v3.42h-3.12v-.12c.88,0,1.51-.25,1.89-.75.38-.5.57-1.09.57-1.77v-.78h.66ZM665.97,1044.52v3.42h-.66v-.78c0-.68-.19-1.27-.57-1.77-.38-.5-1.01-.75-1.89-.75v-.12h3.12ZM668.79,1027.42v4.14h-.66v-.9c0-.84-.27-1.56-.81-2.16-.54-.6-1.27-.9-2.19-.9v-.18h3.66Z"/>
      <path class="cls-4" d="M673.29,1024.72c.36.12.91.26,1.65.42s1.57.29,2.49.39c.92.1,1.78.15,2.58.15l-6.72.6v-1.56ZM706.23,1025.68v1.8h-32.94v-1.8h32.94ZM676.95,1027.36v.12c-.92.04-1.65.35-2.19.93-.54.58-.81,1.29-.81,2.13v.96h-.66v-4.14h3.66ZM687.93,1057.9v3.84h-4.38v-.6h.72c.96,0,1.78-.32,2.46-.96.68-.64,1.04-1.4,1.08-2.28h.12ZM691.71,1025.92v35.82h-3.9v-35.82h3.9ZM691.53,1057.9h.18c.04.88.4,1.64,1.08,2.28.68.64,1.5.96,2.46.96h.66v.6h-4.38v-3.84ZM706.23,1024.72v1.56l-6.72-.6c.8,0,1.65-.05,2.55-.15.9-.1,1.73-.23,2.49-.39.76-.16,1.32-.3,1.68-.42ZM706.23,1027.36v4.14h-.66v-.96c0-.84-.27-1.55-.81-2.13-.54-.58-1.27-.89-2.19-.93v-.12h3.66Z"/>
      <path class="cls-30" d="M721.11,1024.9c1.12,0,2.1.04,2.94.12.84.08,1.57.17,2.19.27.62.1,1.16.22,1.62.36.46.14.87.27,1.23.39l.06,5.94h-.72c0-1.64-.56-2.93-1.68-3.87-1.12-.94-2.86-1.41-5.22-1.41-2,0-3.71.55-5.13,1.65-1.42,1.1-2.11,2.45-2.07,4.05,0,.52.07,1.05.21,1.59.14.54.38,1.07.72,1.59.34.52.81,1.04,1.41,1.56l12.12,9.36c.92.76,1.6,1.73,2.04,2.91.44,1.18.68,2.35.72,3.51.04,1.76-.42,3.38-1.38,4.86-.96,1.48-2.25,2.65-3.87,3.51-1.62.86-3.41,1.29-5.37,1.29-1.16,0-2.41-.1-3.75-.3-1.34-.2-2.59-.51-3.75-.93-1.16-.42-2.12-.95-2.88-1.59-.12-.56-.18-1.27-.18-2.13s.07-1.77.21-2.73c.14-.96.33-1.82.57-2.58h.72c-.16,1.8.1,3.34.78,4.62.68,1.28,1.68,2.25,3,2.91,1.32.66,2.86.97,4.62.93,2.48-.08,4.43-.71,5.85-1.89s2.13-2.75,2.13-4.71c0-.96-.17-1.83-.51-2.61s-.89-1.51-1.65-2.19l-12-9.24c-1.12-.96-1.88-2.02-2.28-3.18-.4-1.16-.6-2.26-.6-3.3,0-1.64.44-3.12,1.32-4.44.88-1.32,2.07-2.37,3.57-3.15s3.17-1.17,5.01-1.17ZM729.03,1025.44l.06,1.08h-4.26v-1.08h4.2Z"/>
    </g>
  </g>
</svg>