<?xml version="1.0" encoding="UTF-8"?>
<svg id="Logo" xmlns="http://www.w3.org/2000/svg" xmlns:xlink="http://www.w3.org/1999/xlink" viewBox="0 0 624.55 784.89">
  <defs>
    <style>
      .cls-1 {
        fill: url(#linear-gradient-15);
      }

      .cls-2 {
        fill: url(#linear-gradient-13);
      }

      .cls-3 {
        fill: url(#linear-gradient-2);
      }

      .cls-4 {
        fill: url(#linear-gradient-25);
      }

      .cls-5 {
        fill: url(#linear-gradient-10);
      }

      .cls-6 {
        fill: url(#linear-gradient-12);
      }

      .cls-7 {
        fill: url(#linear-gradient-27);
      }

      .cls-8 {
        fill: url(#linear-gradient-26);
      }

      .cls-9 {
        fill: url(#linear-gradient-4);
      }

      .cls-10 {
        fill: url(#linear-gradient-3);
      }

      .cls-11 {
        fill: url(#linear-gradient-5);
      }

      .cls-12 {
        fill: url(#linear-gradient-22);
      }

      .cls-13 {
        fill: url(#linear-gradient-24);
      }

      .cls-14 {
        fill: url(#linear-gradient-8);
      }

      .cls-15 {
        fill: url(#linear-gradient-14);
      }

      .cls-16 {
        fill: url(#linear-gradient-20);
      }

      .cls-17 {
        fill: url(#linear-gradient-17);
      }

      .cls-18 {
        fill: url(#linear-gradient-7);
      }

      .cls-19 {
        fill: url(#linear-gradient-9);
      }

      .cls-20 {
        fill: url(#linear-gradient-11);
      }

      .cls-21 {
        fill: url(#linear-gradient-19);
      }

      .cls-22 {
        fill: url(#linear-gradient-6);
      }

      .cls-23 {
        fill: url(#linear-gradient-21);
      }

      .cls-24 {
        fill: url(#linear-gradient-16);
      }

      .cls-25 {
        fill: url(#linear-gradient);
      }

      .cls-26 {
        fill: url(#linear-gradient-23);
      }

      .cls-27 {
        fill: url(#linear-gradient-18);
      }
    </style>
    <linearGradient id="linear-gradient" x1="318.97" y1="164.49" x2="579.47" y2="164.49" gradientUnits="userSpaceOnUse">
      <stop offset="0" stop-color="#0071bc"/>
      <stop offset=".27" stop-color="#0071bc"/>
      <stop offset="1" stop-color="#1b1464"/>
    </linearGradient>
    <linearGradient id="linear-gradient-2" x1="45.07" y1="164.5" x2="305.89" y2="164.5" xlink:href="#linear-gradient"/>
    <linearGradient id="linear-gradient-3" x1="34.93" y1="273.86" x2="295.56" y2="273.86" xlink:href="#linear-gradient"/>
    <linearGradient id="linear-gradient-4" x1="328.99" y1="273.86" x2="589.61" y2="273.86" xlink:href="#linear-gradient"/>
    <linearGradient id="linear-gradient-5" x1="325.8" y1="448.4" x2="473.49" y2="448.4" xlink:href="#linear-gradient"/>
    <linearGradient id="linear-gradient-6" x1="279.23" y1="212.49" x2="365.74" y2="212.49" xlink:href="#linear-gradient"/>
    <linearGradient id="linear-gradient-7" x1="240.46" y1="455.04" x2="331.54" y2="455.04" xlink:href="#linear-gradient"/>
    <linearGradient id="linear-gradient-8" x1="333.98" y1="555.14" x2="407.45" y2="555.14" xlink:href="#linear-gradient"/>
    <linearGradient id="linear-gradient-9" x1="379.08" y1="313.38" x2="517.67" y2="313.38" xlink:href="#linear-gradient"/>
    <linearGradient id="linear-gradient-10" x1="106.64" y1="313.37" x2="245.47" y2="313.37" xlink:href="#linear-gradient"/>
    <linearGradient id="linear-gradient-11" x1="295.79" y1="650.45" x2="344.19" y2="650.45" xlink:href="#linear-gradient"/>
    <linearGradient id="linear-gradient-12" x1="477.6" y1="201.91" x2="624.55" y2="201.91" xlink:href="#linear-gradient"/>
    <linearGradient id="linear-gradient-13" x1="0" y1="201.68" x2="146.94" y2="201.68" xlink:href="#linear-gradient"/>
    <linearGradient id="linear-gradient-14" x1="255.51" y1="581.16" x2="311.53" y2="581.16" xlink:href="#linear-gradient"/>
    <linearGradient id="linear-gradient-15" x1="337.2" y1="705.57" x2="385.75" y2="705.57" xlink:href="#linear-gradient"/>
    <linearGradient id="linear-gradient-16" x1="245.3" y1="361.54" x2="275.71" y2="361.54" xlink:href="#linear-gradient"/>
    <linearGradient id="linear-gradient-17" x1="348.91" y1="361.54" x2="379.27" y2="361.54" xlink:href="#linear-gradient"/>
    <linearGradient id="linear-gradient-18" x1="303.94" y1="135.26" x2="380.74" y2="135.26" xlink:href="#linear-gradient"/>
    <linearGradient id="linear-gradient-19" x1="178.67" y1="337.33" x2="250.48" y2="337.33" xlink:href="#linear-gradient"/>
    <linearGradient id="linear-gradient-20" x1="374.06" y1="337.33" x2="445.87" y2="337.33" xlink:href="#linear-gradient"/>
    <linearGradient id="linear-gradient-21" x1="407.02" y1="532.67" x2="434.45" y2="532.67" xlink:href="#linear-gradient"/>
    <linearGradient id="linear-gradient-22" x1="350.52" y1="587.84" x2="367.59" y2="587.84" xlink:href="#linear-gradient"/>
    <linearGradient id="linear-gradient-23" x1="315.63" y1="249.65" x2="342.33" y2="249.65" xlink:href="#linear-gradient"/>
    <linearGradient id="linear-gradient-24" x1="277.21" y1="120.23" x2="315.61" y2="120.23" xlink:href="#linear-gradient"/>
    <linearGradient id="linear-gradient-25" x1="277.22" y1="336.51" x2="287.09" y2="336.51" xlink:href="#linear-gradient"/>
    <linearGradient id="linear-gradient-26" x1="337.53" y1="336.5" x2="347.33" y2="336.5" xlink:href="#linear-gradient"/>
    <linearGradient id="linear-gradient-27" x1="315.28" y1="661.31" x2="335.65" y2="661.31" xlink:href="#linear-gradient"/>
  </defs>
  <path class="cls-25" d="M529.37,5.84c-.06-1.06-4.1-5.81-.02-5.83,33.4,61.25,26.15,121.59-26.67,167.85-3.5,3.06-8.95,7.82-13.38,9.15,9.72-10.78,20.07-20.8,27.42-33.52,2.66-4.6,12.66-25.36,12.66-29.09v-24.22l-12.5,26.75c-15.56,27.16-40.28,47.6-67.17,63.09-8.97,5.17-39.05,17.37-43.86,22.94-7.25,8.4,9.29,6.24,15.6,5.58,61.89-6.4,130.72-55.51,154.26-113.02,1.03-2.51-1.01-4.51,3.76-3.68v45.93c0,12.24-8.98,37.17-15.36,48.1-8.17,13.99-24.21,29.93-41.41,30.4,6.86-4.37,11.39-9.31,15.3-16.43,13.68-24.92-3.84-9.97-15.33-5.31-69.11,28.04-152.85,14.73-187.31,94.92l-16.38,39.54c1.99-45.26,17.72-90.65,48.38-124.41l-11.66-7.5c51.36-4.78,126.48-27.42,140.75-83.88,3.93-15.55,2.82-27.35,1.21-43.06,5.21,2.84,8.79,8.05,8.34,14.17.42,1.82,2.19,1,3.37.05,3.14-2.54,11.2-19.21,12.93-23.81,2.68-7.14,7.08-22.56,7.08-29.66,0-8.21.49-16.94,0-25.05Z"/>
  <path class="cls-3" d="M45.07,91.84c4.77-.84,2.73,1.17,3.76,3.68,23.58,57.61,92.26,106.6,154.26,113.02,6.31.65,22.86,2.81,15.6-5.58-5.17-5.99-37.58-18.94-47.21-24.6-27.52-16.16-53.84-40.11-67.72-69.22-2.95-6.18-4.22-13.21-7.76-18.96-6.13,34.45,16.56,63.98,39.25,86.82-1.25,1.13-11.72-7.69-13.38-9.15-43.07-37.71-58.51-86.8-38.43-142.01L96.83,0c-2.81,17.8-1.91,35.65,2.93,53.03,1.71,6.13,11.5,29.66,16.32,32.12,2.88,1.47,2.17-1.4,2.5-2.45,1.69-5.44,2.23-9.74,8.32-12.57-16.68,85.35,72.96,120.84,141.97,126.94l-11.66,7.5c27.4,30.21,47.03,77.56,48.48,118.51.07,1.85,1.05,6.34-1.73,5.89-4.08-13.04-8.66-27.32-14.75-39.53-41.46-83.14-104.96-63.67-178.96-91.58-7.66-2.89-19.68-10.7-25.96-12.46-6.72-1.88,1.57,13.15,2.28,14.43,4.21,7.67,8.93,11.61,15.31,17.24-28.07-5.62-45.22-30.81-52.24-57.13-1.23-4.61-4.54-18.36-4.54-22.18v-45.93Z"/>
  <path class="cls-10" d="M295.56,318.96c-29.24-37.34-75.44-66.49-122.93-73.28-9.49-1.36-50.55-3.89-52.51,9.04-3.06,20.22,50.77,31.36,65.23,27.51l-16.34,6.18c-43.45,11.48-85.87-1.21-118.95-30.39-2.29-2.02-16.67-15.5-14.99-17.56,44.55,23.31,92.08-10.16,137.78-11.67,52.8-1.75,104.77,42.51,122.71,90.16Z"/>
  <path class="cls-9" d="M589.48,240.47c1.68,2.06-12.7,15.54-14.99,17.56-33.08,29.18-75.5,41.87-118.95,30.39l-16.34-6.18c18.09.85,45.76-1.65,59.26-15.06,19.35-19.21-14.2-23.74-28.46-23.45-53,1.09-109.09,34.19-141.02,75.23,17.54-47.43,70.4-91.93,122.71-90.16,45.5,1.54,93.5,34.77,137.78,11.67Z"/>
  <path class="cls-11" d="M400.77,460.91c-10.34-12.93-24.4-33.18-43.52-24.08,2.18,29.62,38.2,30.72,60.21,39.97,18.17,7.64,33.42,19.26,44.84,35.32,4.31,6.07,11.96,16.68,11.14,23.95-6.9-13.55-17.06-26.84-30.39-34.75-35.66-21.17-69.47,5.45-100.08-41.87-19.57-30.25-22.18-65.44-8.95-98.73l3.78,27.08c8.46,37.73,36.81,25.16,53.3,50.24,4.02,6.12,7.81,15.69,9.68,22.87Z"/>
  <path class="cls-22" d="M313.94,289.74c-.14.56-2.27,2.56-3.32,2.5-1.37-24.9-9.54-49.26-22.05-70.65-5.66-9.67-10.82-8.54-8.94-21.29,2.75-18.63,20.97-47.75,35.2-59.99,11.21-9.64,16.71-10.05,29.73-1.44,5.32,3.52,8.3,10.45,9.5,11.4,5.13,4.05,1.92-5.54-1.69-7.51,6.64-2.14,13.22,14.42,13.38,20.03-7.65,2.02-21.66-4.3-26.77-9.97-2.57-2.85-2.77-7.72-6.63-9.21-3.15,22-4.34,45.54,13.34,61.77-23.61,6.15-46.52.75-38.42-28.37-18.05,18.98-3.43,36.56,2.15,55.48.86,2.91,4.54,17.13,4.54,18.84,0,8.88,1.72,31.66,0,38.41Z"/>
  <path class="cls-18" d="M322.29,349.04l-14.17,8.35c-8,7.71-18.86,36.75-.42,33.05,4.84-.97,8.28-6.62,12.92-5.52-12.61,15.18-26.49,38.18-25.11,58.52,1.09,16.13,17.07,34.79,24.08,49.4,10.82,22.56,13.66,43.4,11.04,68.26l-6.76-30.79c-8.5-40.33-60.43-62.76-43.33-107.82-12.43,7.86-25.87,8.57-40.06,10,10.62-8.05,22.53-14.19,30.78-25.14,16.8-22.3,13.77-60.26,51.04-58.32Z"/>
  <path class="cls-14" d="M374.07,501c3.14-.72,3.96,1.77,5.84,3.33,16.8,13.9,28.78,31,25.45,53.84-1.44,9.87-8.16,18.87-9.4,29.01-2.55,20.8,2.91,37.38,11.49,55.76-23.62-19.63-34-51.47-31.79-81.76-15.65-.22-31.42-14.13-32.97-29.78-.7-7.07,2.42-12.89,2.96-19.57,1.37-17.24-3.13-29.71-11.66-44.21,2.62-2.51,12.8,12.93,14.01,15.2,7.92,14.9,4.92,32.13,16.1,45.69,12.63,15.33,26.01,11.93,19.1-9.1-.91-2.78-9.85-17.67-9.12-18.4Z"/>
  <path class="cls-19" d="M517.67,305.6c-11,31.32-48.49,43.28-79.18,43.51-4.12-15.22-7.86-39.39-27.69-40.19,8.21-9.95,23.61,1.05,31.71,6.7-9.26-23.72-25.12-34.2-50.92-31.73-4.73.45-8.4,3.62-12.51,2.52,18.65-13.79,36.4-10.02,54.27,2.49,12.49,8.74,24.71,28.34,40.26,29.97,13.76,1.44,32.02-7.18,44.05-13.26Z"/>
  <path class="cls-5" d="M245.47,287.22c-27.89-10.4-53.59.25-63.44,28.41,8.1-5.64,23.5-16.64,31.71-6.7-19.79,1.37-23.64,24.67-27.69,40.19-22.91-.18-50.03-7.02-66.75-23.4-1.7-1.67-16.72-21.74-11.62-20.11,11.03,6.82,30.17,14.62,43.24,13.25,15.19-1.59,28.19-21.17,40.3-29.92,17.64-12.74,36.53-16.56,54.24-1.72Z"/>
  <path class="cls-20" d="M343.99,654.67c.18.21.61,3.51-.81,3.29-16.06-8.86-22.48-18.94-27.53-35.94-.71-2.41,1.02-2.94-3.36-2.46-10.22,44.16-.63,87.09,15,128.59l-14.12-26.77c-23.92-57.13-24.19-113.72,5.81-168.6,2.98-.39,1.63,3.76,1.45,5.62-3.24,34.06-4.01,66.7,19.57,94.47,1.29,1.52,3.81,1.59,3.99,1.8Z"/>
  <path class="cls-6" d="M477.6,225.46c55.47,3.63,112.53-13.22,146.94-58.47-10.54,71.77-82.73,79.43-141.17,61.86-2.24-.67-5.19-.13-5.77-3.39Z"/>
  <path class="cls-2" d="M146.94,225.46c-3.32,4.21-12.64,4.97-18.05,6.14-58.06,12.6-117.87,3.2-128.89-64.61,34.21,45.21,91.62,62.1,146.94,58.47Z"/>
  <path class="cls-15" d="M293.89,703.06c-4.6-4.67-7.43-13.52-9.52-19.69-10.45-30.95-13.53-64.86-.5-95.54l-17.37,18.52-10.99,18.21c2.12-15.26,11.83-31.01,21-43.27,14.5-19.37,39.4-35.4,26.66-63.69-4.54-10.08-13.85-14.27-19.98-23.44-6.71-10.05-11.43-22.86-12.66-34.91l11.97,23.91c8.12,13.34,24.06,21.4,27.69,37.43,6.09,26.89-10.24,48.06-17.5,71.88-10.71,35.17-9.03,75.53,1.18,110.58Z"/>
  <path class="cls-1" d="M385.75,676.33c-5.72,1.85-15.39-2.97-19.99-.86-4.1,1.88-14.99,20.9-16.01,25.84-5.19,25.19,13.97,33.06,15.97,54.36.86,9.2-1.66,22.39-8.34,29.23.6-4.92,2.82-9.12,3.29-14.21,2.76-29.8-23.35-40.49-23.48-70.13-.11-24.08,21.49-36.19,18.35-61.65-.54-4.34-3.57-8.09-3.18-12.66,13.91,11,7.35,32.31,22.51,43.44,3.81,2.8,8.72,2.67,10.88,6.64Z"/>
  <path class="cls-24" d="M268.87,350.7c2.26-.49,1.82,1.72,2.47,3.32,9.81,24.28,3.46,52.46-22.52,61.79,1.37-5.93,4.82-10.26,5.93-16.6,5.48-31.52-21.89-50.86-2.25-84.08,1.58-2.67,3.42-6.54,6.32-7.85-8.94,17.64-9.17,40.78,5.86,55.08l4.19-11.65Z"/>
  <path class="cls-17" d="M375.73,415.81c-27.84-10.3-31.95-40.08-21.68-65.11l5.82,11.64c15.4-14.73,14.96-36.96,5.86-55.08,7.24,6.57,12.39,17.96,13.32,27.57,2.24,23.19-13.43,40.36-9.25,64.37,1.1,6.35,4.55,10.67,5.92,16.6Z"/>
  <path class="cls-27" d="M380.74,178.67l-10.43-12.1c-1.79-11.41-.87-18.23-10.49-26.26-11.24-9.38-27.66-9.05-40.36-14.75-3.9-1.75-15.19-8.18-13.05-12,1.71,3.59,14.88,7.32,10.83,1.69-.1-.14-2.24.21-3.3-1.22-4.6-6.23-9.64-14.24-10.01-22.18,2.73.69,2.83,4.87,4.98,7.52,18.29,22.54,47.25,16.22,60.12,33.39,11.82,15.76,1.28,30.01,11.7,45.9Z"/>
  <path class="cls-21" d="M250.48,300.61c-5.51,5.68-13.76,9.25-19.05,15.17-3.5,3.92-15.18,21.69-9.35,25.75l11.69-4.2c-8.57,22.74-31.72,35.23-55.09,36.72,4.12-5.13,11.58-5,17.26-8.6,17.09-10.84,16.07-36.96,29.42-50.74,6.16-6.35,16.73-11.37,25.12-14.11Z"/>
  <path class="cls-16" d="M445.87,374.06c-23.35-1.32-46.49-14.21-55.09-36.72,15.47,10.27,16.02.96,9.26-11.78-5.84-11.01-16.69-17.33-25.97-24.95,8.39,2.73,18.96,7.75,25.12,14.11,13.36,13.77,12.34,39.89,29.42,50.74,5.68,3.61,13.14,3.47,17.26,8.6Z"/>
  <path class="cls-23" d="M427.52,559.44c4.67-25.1-24.45-29.58-20.05-53.43,1.05-1.23,11.92,7.86,13.37,9.15,14.18,12.53,16.69,19.95,10.22,38.66-.75,2.18-.47,5.1-3.55,5.62Z"/>
  <path class="cls-12" d="M357.38,614.55c7.14-19.31-12.84-33.69-5.01-53.43l10.9,14.96c7,12.29,5.8,29.76-5.89,38.47Z"/>
  <path class="cls-26" d="M342.33,215.44c-22.75,17.4-10.19,47.61-26.7,68.45,1.42-8.04,5.04-17.78,5.14-25.9.12-10.3-5.69-20.86-1.79-30.87,3.31-.3.03,10.81,4.96,6.65,3.21-2.7,6.99-19.25,18.4-18.34Z"/>
  <path class="cls-13" d="M315.61,131.91c-7.83-3.66-22.92,2.35-25.03-8.33l6.66,3.32-2.66-4.84-17.37-13.5c14.85,3.14,29.52,10.91,38.4,23.35Z"/>
  <path class="cls-4" d="M282.19,360.7c-2.9.4-1.57-3.8-1.65-5.82-.55-14.65.39-28.05-3.32-42.59,2.38.81,4.86,6.13,5.82,8.35,6.43,14.91,4.48,25.24-.85,40.06Z"/>
  <path class="cls-8" d="M343.99,360.7c-2.8-.72-3.9-7.16-4.51-9.66-2.96-11.97-2.72-18.88,2.02-30.41.88-2.13,3.51-7.57,5.83-8.34-3.38,16.06-3.89,31.99-3.34,48.41Z"/>
  <path class="cls-7" d="M335.65,678c-15.87-3.97-24.58-17.34-18.35-33.38,8.05,4.97,5.08,15.91,7.92,22.95,2.03,5.04,7.89,6.21,10.43,10.43Z"/>
</svg>